<svg width="394" height="136" viewBox="0 0 394 136" fill="none" xmlns="http://www.w3.org/2000/svg">
<g clip-path="url(#clip0)">
<circle cx="62.4871" cy="110.196" r="25.7547" fill="#D13239"/>
<circle cx="18.7883" cy="75.364" r="18.7883" fill="#262321"/>
<circle cx="73.2162" cy="36.4837" r="36.4837" fill="#9ADADA"/>
<path fill-rule="evenodd" clip-rule="evenodd" d="M119.32 78.7661C118.942 80.4327 118.574 82.0588 118.574 82.5719C118.574 83.839 119.467 84.4722 121.252 84.4722H155.49C175.34 84.4722 188.165 77.8228 188.165 62.9398C188.165 53.0178 179.913 50.0623 175.786 49.2179C174.671 49.0069 174.335 48.69 174.335 48.1627C174.335 47.7398 174.783 47.5288 175.674 47.3185C182.366 45.9455 192.069 42.1456 192.069 29.0578C192.069 18.3967 184.931 14.0688 169.43 14.0688H136.419C134.746 14.0688 133.964 14.4911 133.631 15.9684L119.58 77.6116C119.495 77.9897 119.407 78.379 119.32 78.7661ZM157.945 41.6259C163.41 41.6259 166.645 38.3535 166.645 33.0753C166.645 28.3255 163.857 27.5873 160.51 27.5873H158.837C157.498 27.5873 156.942 28.2203 156.608 29.5926L154.823 37.0862C154.377 38.7764 154.153 39.8309 154.153 40.4648C154.153 41.203 154.6 41.6259 156.049 41.6259H157.945ZM151.141 70.9789C157.833 70.9789 161.512 67.6013 161.512 62.2181C161.512 57.257 158.613 55.5678 154.709 55.5678H152.034C151.028 55.5678 150.584 55.7797 150.361 56.941L147.907 67.6013C147.856 67.8419 147.805 68.0715 147.757 68.2889C147.594 69.0256 147.463 69.6217 147.463 70.0288C147.463 70.6627 147.796 70.9789 148.91 70.9789H151.141Z" fill="#D13239"/>
<path fill-rule="evenodd" clip-rule="evenodd" d="M238.889 14.0684C207.639 14.0684 192.07 34.494 192.07 60.1584C192.07 78.5946 205.044 87.0792 224.787 87.0792C256.601 87.0792 270.815 65.6049 270.815 41.4076C270.815 23.0764 259.196 14.0684 238.889 14.0684ZM235.843 32.2011C242.047 32.2011 243.064 37.8579 243.064 41.9424C243.064 53.3602 238.324 68.8633 227.719 68.8633C221.741 68.8633 220.612 63.7307 220.612 58.8074C220.612 47.5992 225.576 32.2011 235.843 32.2011Z" fill="#D13239"/>
<path d="M272.348 84.4623C269.652 83.6229 268.189 82.9952 268.189 80.9C268.189 79.0142 270.551 69.6918 270.999 67.9109C271.448 66.2347 272.123 65.6063 273.36 65.6063C275.72 65.6063 281.449 70.5296 291.226 70.5296C296.955 70.5296 299.09 68.8538 299.09 65.8166C299.09 62.1499 296.056 60.8924 290.551 57.3318L288.641 55.9692C281.449 51.0459 277.066 46.4374 277.066 36.9054C277.066 21.822 288.417 14.0698 309.652 14.0698C317.291 14.0698 326.057 15.1172 331.337 17.3169C333.36 18.1546 333.81 18.8888 333.81 20.5644C333.81 21.9263 331.675 30.6196 330.662 33.5526C330.326 34.6006 329.99 35.5429 328.305 35.5429C325.382 35.5429 320.325 30.7247 311.337 30.7247C307.181 30.7247 304.372 31.4583 304.372 34.1819C304.372 37.5338 308.753 39.2103 314.371 43.0852L316.955 44.9713C323.922 49.7901 326.956 54.7124 326.956 63.0928C326.956 78.491 316.73 87.0807 291.787 87.0807C283.023 87.0807 277.63 86.0326 272.348 84.4623Z" fill="#D13239"/>
<path d="M128.015 135.834H137.779C139.048 135.834 139.683 135.395 139.927 133.93L143.443 111.032C143.54 110.544 143.638 110.397 143.931 110.397C144.224 110.397 144.321 110.593 144.37 111.032L147.739 133.198C148.081 135.443 148.911 135.834 150.082 135.834H158.773C160.14 135.834 160.677 135.248 160.921 134.321L168.049 105.076C168.196 104.49 168.391 103.806 168.391 103.514C168.391 103.025 168.098 102.781 167.61 102.781H161.604C160.823 102.781 160.482 103.123 160.335 103.855L155.648 127.534C155.599 127.827 155.55 128.071 155.258 128.071C155.013 128.071 154.916 127.974 154.818 127.485L151.449 104.978C151.156 103.074 150.473 102.781 149.204 102.781H140.074C138.756 102.781 138.072 103.269 137.779 104.881L134.215 127.485C134.166 127.876 134.02 128.071 133.776 128.071C133.434 128.071 133.336 127.827 133.287 127.485L128.649 103.855C128.503 103.123 128.112 102.781 127.331 102.781H119.91C119.275 102.781 118.982 103.074 118.982 103.465C118.982 103.953 119.08 104.49 119.324 105.564L126.013 133.93C126.355 135.297 127.038 135.834 128.015 135.834Z" fill="#262321"/>
<path d="M177.583 135.346H185.541C186.029 135.346 186.42 135.102 186.42 134.516V103.66C186.42 103.074 186.127 102.781 185.541 102.781H177.632C176.997 102.781 176.704 103.074 176.704 103.66V134.516C176.704 135.102 176.997 135.346 177.583 135.346Z" fill="#262321"/>
<path d="M198.712 135.346H206.231C206.865 135.346 207.158 135.102 207.158 134.516V123.482C207.158 123.189 207.305 123.043 207.598 123.043H207.891C208.33 123.043 208.428 123.238 208.623 123.531L214.482 134.662C214.726 135.102 215.165 135.346 215.751 135.346H224.539C224.93 135.346 225.125 135.15 225.125 134.858C225.125 134.662 225.125 134.418 224.734 133.881L217.704 122.066C217.557 121.822 217.509 121.724 217.509 121.578C217.509 121.334 217.655 121.187 218.094 121.041C221.121 119.918 223.367 116.598 223.367 112.448C223.367 105.027 219.803 102.781 210.966 102.781H198.663C198.077 102.781 197.833 103.074 197.833 103.66V134.516C197.833 135.102 198.077 135.346 198.712 135.346ZM207.842 117.086C207.5 117.086 207.305 116.891 207.305 116.5V109.03C207.305 108.542 207.5 108.347 207.939 108.347H209.599C212.577 108.347 213.847 109.812 213.847 112.643C213.847 115.817 212.138 117.086 209.697 117.086H207.842Z" fill="#262321"/>
<path d="M235.05 135.346H256.288C256.972 135.346 257.118 135.102 257.118 134.516V129.341C257.118 128.755 256.972 128.462 256.288 128.462H244.424C244.034 128.462 243.838 128.267 243.838 127.778V122.652C243.838 122.261 244.034 122.066 244.375 122.066H252.822C253.408 122.066 253.701 121.822 253.701 121.236V116.11C253.701 115.524 253.408 115.28 252.822 115.28H244.375C244.034 115.28 243.838 115.084 243.838 114.743V110.251C243.838 109.86 244.034 109.665 244.327 109.665H255.214C255.849 109.665 256.191 109.47 256.191 108.786V103.66C256.191 103.025 255.849 102.781 255.214 102.781H235.05C234.416 102.781 234.172 103.025 234.172 103.709V134.516C234.172 135.053 234.416 135.346 235.05 135.346Z" fill="#262321"/>
<path d="M267.288 135.346H286.085C286.72 135.346 286.915 135.053 286.915 134.516V129.389C286.915 128.804 286.72 128.462 286.085 128.462H276.809C276.369 128.462 276.125 128.315 276.125 127.827V103.66C276.125 103.123 275.93 102.781 275.295 102.781H267.288C266.654 102.781 266.41 103.123 266.41 103.66V134.369C266.41 135.102 266.703 135.346 267.288 135.346Z" fill="#262321"/>
<path d="M296.618 135.346H317.856C318.54 135.346 318.686 135.102 318.686 134.516V129.341C318.686 128.755 318.54 128.462 317.856 128.462H305.992C305.602 128.462 305.406 128.267 305.406 127.778V122.652C305.406 122.261 305.602 122.066 305.943 122.066H314.39C314.975 122.066 315.268 121.822 315.268 121.236V116.11C315.268 115.524 314.975 115.28 314.39 115.28H305.943C305.602 115.28 305.406 115.084 305.406 114.743V110.251C305.406 109.86 305.602 109.665 305.895 109.665H316.782C317.417 109.665 317.758 109.47 317.758 108.786V103.66C317.758 103.025 317.417 102.781 316.782 102.781H296.618C295.984 102.781 295.739 103.025 295.739 103.709V134.516C295.739 135.053 295.984 135.346 296.618 135.346Z" fill="#262321"/>
<path d="M335.984 136.078C345.212 136.078 348.727 132.465 348.727 125.923C348.727 121.431 346.872 118.356 341.501 115.768L338.181 114.059C335.936 112.985 335.203 112.253 335.203 110.983C335.203 109.03 336.814 108.445 339.06 108.445C343.65 108.445 345.993 110.739 347.116 110.739C347.946 110.739 348.092 110.251 348.092 109.567V105.32C348.092 104.343 347.848 103.904 346.872 103.514C344.187 102.439 341.501 102.049 338.67 102.049C330.712 102.049 326.366 105.222 326.366 111.813C326.366 116.061 328.173 119.039 332.127 121.041L336.863 123.482C338.816 124.458 339.695 125.288 339.695 126.655C339.695 128.559 338.474 129.585 335.301 129.585C330.321 129.585 328.417 127.095 327.196 127.095C326.562 127.095 326.366 127.437 326.366 128.071V132.856C326.366 134.076 326.708 134.467 328.173 134.955C330.272 135.688 332.909 136.078 335.984 136.078Z" fill="#262321"/>
<path d="M366.029 136.078C375.257 136.078 378.772 132.465 378.772 125.923C378.772 121.431 376.917 118.356 371.546 115.768L368.226 114.059C365.981 112.985 365.248 112.253 365.248 110.983C365.248 109.03 366.859 108.445 369.105 108.445C373.694 108.445 376.038 110.739 377.161 110.739C377.991 110.739 378.137 110.251 378.137 109.567V105.32C378.137 104.343 377.893 103.904 376.917 103.514C374.232 102.439 371.546 102.049 368.715 102.049C360.757 102.049 356.411 105.222 356.411 111.813C356.411 116.061 358.218 119.039 362.172 121.041L366.908 123.482C368.861 124.458 369.74 125.288 369.74 126.655C369.74 128.559 368.519 129.585 365.346 129.585C360.366 129.585 358.462 127.095 357.241 127.095C356.607 127.095 356.411 127.437 356.411 128.071V132.856C356.411 134.076 356.753 134.467 358.218 134.955C360.317 135.688 362.954 136.078 366.029 136.078Z" fill="#262321"/>
<path d="M332.717 84.4623C330.021 83.6229 328.559 82.9952 328.559 80.9C328.559 79.0142 330.92 69.6918 331.37 67.9109C331.817 66.2347 332.494 65.6063 333.73 65.6063C336.089 65.6063 341.818 70.5296 351.595 70.5296C357.324 70.5296 359.459 68.8538 359.459 65.8166C359.459 62.1499 356.425 60.8924 350.92 57.3318L349.011 55.9692C341.818 51.0459 337.438 46.4374 337.438 36.9054C337.438 21.822 348.786 14.0698 370.021 14.0698C377.663 14.0698 386.426 15.1172 391.708 17.3169C393.729 18.1546 394.179 18.8888 394.179 20.5644C394.179 21.9263 392.044 30.6196 391.034 33.5526C390.698 34.6006 390.359 35.5429 388.674 35.5429C385.752 35.5429 380.697 30.7247 371.708 30.7247C367.55 30.7247 364.741 31.4583 364.741 34.1819C364.741 37.5338 369.122 39.2103 374.742 43.0852L377.324 44.9713C384.291 49.7901 387.325 54.7124 387.325 63.0928C387.325 78.491 377.099 87.0807 352.156 87.0807C343.392 87.0807 337.999 86.0326 332.717 84.4623Z" fill="#D13239"/>
<path d="M380.397 97.4107C380.051 97.4107 379.712 97.3891 379.378 97.346C379.057 97.2921 378.791 97.2221 378.581 97.1359V96.2791C378.816 96.3545 379.1 96.43 379.434 96.5054C379.78 96.5809 380.132 96.6186 380.49 96.6186C380.972 96.6186 381.337 96.5485 381.584 96.4084C381.831 96.2576 381.954 96.0582 381.954 95.8103C381.954 95.5409 381.831 95.3361 381.584 95.196C381.337 95.056 380.966 94.9105 380.472 94.7596C380.175 94.6626 379.872 94.5548 379.563 94.4363C379.267 94.307 379.013 94.1292 378.803 93.9028C378.593 93.6765 378.488 93.3802 378.488 93.0138C378.488 92.4965 378.705 92.1085 379.137 91.8499C379.582 91.5912 380.169 91.4619 380.898 91.4619C381.269 91.4619 381.608 91.4942 381.917 91.5589C382.239 91.6128 382.529 91.6882 382.788 91.7852L382.51 92.5773C382.276 92.4803 382.016 92.3995 381.732 92.3348C381.46 92.2594 381.17 92.2217 380.861 92.2217C380.008 92.2217 379.582 92.4911 379.582 93.0299C379.582 93.2993 379.705 93.4987 379.953 93.628C380.212 93.7574 380.589 93.8975 381.083 94.0483C381.726 94.2423 382.214 94.4578 382.548 94.6949C382.894 94.9212 383.067 95.2715 383.067 95.7457C383.067 96.2953 382.826 96.7102 382.344 96.9904C381.874 97.2706 381.225 97.4107 380.397 97.4107ZM384.16 97.2975V91.6074H385.902L387.645 95.9881L389.443 91.6074H391.129V97.2975H389.943V93.9998C389.943 93.9136 389.949 93.7466 389.962 93.4987C389.974 93.2401 389.986 93.0461 389.999 92.9168H389.925L388.053 97.2975H387.07L385.291 92.9168H385.217C385.229 93.0892 385.241 93.2832 385.254 93.4987C385.266 93.7143 385.272 93.8543 385.272 93.919V97.2975H384.16Z" fill="#3E3E3E"/>
</g>
<defs>
<clipPath id="clip0">
<rect width="394" height="136" fill="white"/>
</clipPath>
</defs>
</svg>
